<svg id="visual" viewBox="0 0 900 600" width="900" height="600" xmlns="http://www.w3.org/2000/svg" xmlns:xlink="http://www.w3.org/1999/xlink" version="1.1"><rect x="0" y="0" width="900" height="600" fill="#ffb710"></rect><path d="M0 435L129 375L257 384L386 392L514 381L643 410L771 444L900 401L900 601L771 601L643 601L514 601L386 601L257 601L129 601L0 601Z" fill="#f5730a"></path><path d="M0 453L129 431L257 427L386 457L514 477L643 473L771 458L900 474L900 601L771 601L643 601L514 601L386 601L257 601L129 601L0 601Z" fill="#d86428"></path><path d="M0 494L129 438L257 449L386 473L514 499L643 495L771 506L900 503L900 601L771 601L643 601L514 601L386 601L257 601L129 601L0 601Z" fill="#b95834"></path><path d="M0 503L129 528L257 495L386 527L514 531L643 522L771 520L900 496L900 601L771 601L643 601L514 601L386 601L257 601L129 601L0 601Z" fill="#984e3b"></path><path d="M0 524L129 562L257 529L386 571L514 559L643 550L771 534L900 568L900 601L771 601L643 601L514 601L386 601L257 601L129 601L0 601Z" fill="#75463d"></path></svg>